<svg xmlns="http://www.w3.org/2000/svg" viewBox="0 0 256 256" role="img">
<title>Ryuzaki favicon — 龍</title>
<desc>Favicon for Daniel Ryuzaki Adan: the kanji 龍 (dragon, from Ryuzaki) in ivory on a near-black ground, with a small brass dot at the lower-right corner.</desc>
<rect width="256" height="256" rx="28" fill="#0a0a0b"/>
<g fill="#ededec">
<g transform="matrix(0.224,0,0,-0.224,15.414,213.14)"><path d="M155 692 142 686C162 650 183 594 181 551C233 500 298 609 155 692ZM236 835V726H53L61 697H354C341 647 321 579 304 530H41L49 501H505C519 501 528 506 531 517C500 546 451 586 451 586L408 530H328C358 569 390 618 411 653C432 652 444 660 448 672L361 697H493C506 697 515 701 518 712C487 742 437 781 437 781L394 726H300V800C322 804 330 813 332 826ZM549 464V5C549 -49 567 -66 649 -66H764C931 -66 964 -55 964 -24C964 -12 958 -5 935 3L931 85H919C909 48 899 14 891 4C887 -3 880 -5 870 -5C854 -6 816 -7 767 -7H660C617 -7 612 -1 612 19V99H900C913 99 923 104 925 114C897 141 851 174 851 174L811 128H612V210H879C893 210 901 215 904 226C876 251 831 284 831 284L793 240H612V320H885C899 320 908 325 910 336C882 362 836 395 836 395L797 350H612V435H823V412H833C853 412 885 426 886 432V556C905 560 922 568 929 576L848 636L814 597H613V683H917C931 683 941 688 944 698C911 729 858 770 858 770L812 711H613V800C638 804 648 814 649 828L549 838V518H560C584 518 613 532 613 540V568H823V464H624L549 496ZM380 276V178H177V276ZM380 305H177V393H380ZM114 423V-78H124C152 -78 177 -63 177 -55V149H380V12C380 -1 377 -6 362 -6C344 -6 276 -1 276 -1V-16C309 -20 327 -27 339 -37C349 -45 353 -61 354 -78C434 -71 444 -42 444 7V381C464 384 481 393 487 400L403 463L370 423H181L114 454Z"/></g>
</g>
</svg>