<svg xmlns="http://www.w3.org/2000/svg" viewBox="0 0 1400 360" role="img">
<title>Ryuzaki Systems — Daniel Ryuzaki Adan</title>
<desc>Banner for the Ryuzaki Systems GitHub profile: the kanji 龍崎 stacked at left with a brass divider stroke, the wordmark RYUZAKI SYSTEMS, role and location, and a status line reading active but not so active, on a near-black ground.</desc>
<rect width="1400" height="360" fill="#0a0a0b"/>
<g fill="#ededec">
<g transform="matrix(0.119,0,0,-0.119,128.26,161.677)"><path d="M155 692 142 686C162 650 183 594 181 551C233 500 298 609 155 692ZM236 835V726H53L61 697H354C341 647 321 579 304 530H41L49 501H505C519 501 528 506 531 517C500 546 451 586 451 586L408 530H328C358 569 390 618 411 653C432 652 444 660 448 672L361 697H493C506 697 515 701 518 712C487 742 437 781 437 781L394 726H300V800C322 804 330 813 332 826ZM549 464V5C549 -49 567 -66 649 -66H764C931 -66 964 -55 964 -24C964 -12 958 -5 935 3L931 85H919C909 48 899 14 891 4C887 -3 880 -5 870 -5C854 -6 816 -7 767 -7H660C617 -7 612 -1 612 19V99H900C913 99 923 104 925 114C897 141 851 174 851 174L811 128H612V210H879C893 210 901 215 904 226C876 251 831 284 831 284L793 240H612V320H885C899 320 908 325 910 336C882 362 836 395 836 395L797 350H612V435H823V412H833C853 412 885 426 886 432V556C905 560 922 568 929 576L848 636L814 597H613V683H917C931 683 941 688 944 698C911 729 858 770 858 770L812 711H613V800C638 804 648 814 649 828L549 838V518H560C584 518 613 532 613 540V568H823V464H624L549 496ZM380 276V178H177V276ZM380 305H177V393H380ZM114 423V-78H124C152 -78 177 -63 177 -55V149H380V12C380 -1 377 -6 362 -6C344 -6 276 -1 276 -1V-16C309 -20 327 -27 339 -37C349 -45 353 -61 354 -78C434 -71 444 -42 444 7V381C464 384 481 393 487 400L403 463L370 423H181L114 454Z"/></g>
<g transform="matrix(0.119,0,0,-0.119,125.941,288.439)"><path d="M189 813V152H131V622C157 626 165 635 168 649L75 660V19H86C107 19 131 33 131 40V123H309V62H320C342 62 366 75 366 84V626C390 629 399 638 402 652L309 663V152H248V777C270 780 278 789 280 803ZM366 460 374 431H802V22C802 8 796 3 776 3C754 3 634 11 634 11V-4C686 -11 715 -19 732 -30C747 -41 754 -59 756 -80C850 -69 863 -31 863 20V431H944C958 431 966 435 969 446C938 477 888 518 888 518L842 460ZM645 313V162H506V313ZM449 342V54H458C482 54 506 68 506 74V133H645V81H654C673 81 702 95 703 101V302C721 305 738 313 744 321L669 378L635 342H511L449 370ZM619 836C618 792 616 753 610 718H385L393 689H604C582 607 526 550 379 502L388 483C541 520 612 568 646 632C710 598 789 540 822 495C894 468 907 604 655 650C660 663 664 676 668 689H925C939 689 949 694 952 704C919 735 866 776 866 776L820 718H674C678 744 681 772 683 802C704 804 712 815 714 827Z"/></g>
</g>
<path d="M 346 50
  Q 370 40, 368 64
  C 360 110, 372 228, 364 289"
  fill="none" stroke="#c9a66b" stroke-width="5" stroke-linecap="round"/>
<circle cx="364" cy="295" r="6" fill="#c9a66b"/>

<text x="412" y="94" font-family="JetBrains Mono, ui-monospace, SFMono-Regular, Menlo, monospace" font-size="18" font-weight="500" letter-spacing="5" fill="#c9a66b">DANIEL RYUZAKI ADAN</text>
<text x="412" y="154" font-family="JetBrains Mono, ui-monospace, SFMono-Regular, Menlo, monospace" font-size="56" font-weight="700" letter-spacing="1" fill="#ededec">RYUZAKI SYSTEMS</text>
<text x="412" y="194" font-family="JetBrains Mono, ui-monospace, SFMono-Regular, Menlo, monospace" font-size="17" font-weight="400" letter-spacing="0.5" fill="#8c8c8a">freelance ML &amp; software engineer · caloocan, ph (utc+8)</text>


<line x1="412" y1="284" x2="1336" y2="284" stroke="#232325" stroke-width="1.5"/>
<text x="412" y="314" font-family="JetBrains Mono, ui-monospace, SFMono-Regular, Menlo, monospace" font-size="15" fill="#8c8c8a">$ status --user daniel</text>
<text x="698" y="314" font-family="JetBrains Mono, ui-monospace, SFMono-Regular, Menlo, monospace" font-size="15" fill="#c9a66b">active but not so active</text>

</svg>